<?xml version="1.0" standalone="no"?><!DOCTYPE svg PUBLIC "-//W3C//DTD SVG 1.1//EN" "http://www.w3.org/Graphics/SVG/1.1/DTD/svg11.dtd"><svg t="1492949766246" class="icon" style="" viewBox="0 0 1024 1024" version="1.1" xmlns="http://www.w3.org/2000/svg" p-id="1442" xmlns:xlink="http://www.w3.org/1999/xlink" width="200" height="200"><defs><style type="text/css"></style></defs><path d="M230.69 2.93h561.111c126.773 0 229.546 102.77 229.546 229.545v561.113c0 126.773-102.773 229.546-229.546 229.546h-561.111c-126.772 0-229.545-102.773-229.545-229.546v-561.113c0-126.774 102.772-229.545 229.545-229.545z" fill="#EF6527" p-id="1443"></path><path d="M331.327 380.416c-20.694 1.043-31.018 11.39-31.018 31.021v83.757h-124.082v-83.757c-1.043-19.63-10.857-29.977-29.47-31.021-19.653 1.043-29.47 11.39-29.47 31.021v226.447c0 18.615 9.815 27.921 29.47 27.921 18.613 0 28.428-9.306 29.47-27.921v-86.855h124.082v86.855c0 18.615 10.323 27.921 31.018 27.921 18.613 0 28.429-9.306 29.472-27.921v-226.446c-1.043-19.63-10.86-29.977-29.472-31.022zM481.775 454.866h-17.062v-34.123c-2.084-19.629-11.391-30.489-27.919-32.574-18.614 2.084-28.452 12.943-29.472 32.574v34.123h-12.409c-12.405 1.041-19.629 9.303-21.713 24.815 0 16.555 7.221 24.817 21.713 24.817h12.409v131.838c1.019 19.651 10.857 29.469 29.472 29.469 17.569 0 26.876-9.815 27.919-29.469v-131.837h17.062c16.526 0 25.325-8.261 26.368-24.817-1.042-15.513-9.842-23.775-26.368-24.816zM737.693 450.213c-21.714 2.084-41.878 11.39-60.49 27.919-14.492-17.573-34.124-26.876-58.941-27.919-20.695 0-38.265 7.755-52.735 23.266-3.102-13.428-11.898-20.672-26.367-21.715-19.654 2.084-29.471 12.941-29.471 32.571v152.002c1.019 19.651 10.858 29.469 29.471 29.469 17.569 0 26.878-9.815 27.919-29.469v-99.265c0-25.839 11.364-39.286 34.123-40.329 20.671 2.083 32.037 15.51 34.121 40.329v99.265c0 19.651 9.305 29.469 27.919 29.469 17.572 0 26.877-9.815 27.919-29.469v-99.265c1.019-24.818 12.407-38.246 34.123-40.329 20.672 2.083 32.037 15.51 34.123 40.329v99.265c0 19.651 9.306 29.469 27.919 29.469 17.571 0 27.385-9.815 29.469-29.469v-110.125c-2.086-48.591-28.453-73.917-79.102-75.999zM875.729 360.255c-17.591 2.083-26.895 12.406-27.917 31.021v245.062c1.021 19.651 10.324 29.469 27.917 29.469 17.573 0 27.386-9.815 29.474-29.469v-245.062c-2.089-18.615-11.901-28.939-29.474-31.021z" fill="#FFFFFF" p-id="1444"></path></svg>